<svg xmlns="http://www.w3.org/2000/svg" viewBox="0 0 512 512" width="64" height="64">
  <defs>
    <linearGradient id="bg" x1="0%" y1="0%" x2="100%" y2="100%">
      <stop offset="0%" style="stop-color:#4A6FA5;stop-opacity:1" />
      <stop offset="100%" style="stop-color:#3D5A8C;stop-opacity:1" />
    </linearGradient>
  </defs>
  <!-- Background rounded square -->
  <rect width="512" height="512" rx="100" ry="100" fill="url(#bg)"/>
  
  <!-- Robot head -->
  <rect x="185" y="118" width="142" height="82" rx="20" ry="20" fill="white"/>
  
  <!-- Eyes -->
  <circle cx="220" cy="159" r="12" fill="#3D5A8C"/>
  <circle cx="292" cy="159" r="12" fill="#3D5A8C"/>
  
  <!-- Head connectors -->
  <rect x="164" y="148" width="20" height="22" rx="10" ry="10" fill="white"/>
  <rect x="328" y="148" width="20" height="22" rx="10" ry="10" fill="white"/>
  
  <!-- Neck lines -->
  <rect x="241" y="215" width="30" height="4" rx="2" ry="2" fill="white"/>
  <rect x="241" y="225" width="30" height="4" rx="2" ry="2" fill="white"/>
  
  <!-- Robot body -->
  <rect x="181" y="248" width="150" height="145" rx="8" ry="8" fill="white"/>
  
  <!-- Screen/display -->
  <rect x="201" y="268" width="110" height="105" rx="4" ry="4" fill="none" stroke="#3D5A8C" stroke-width="6"/>
  
  <!-- Screen lines -->
  <rect x="220" y="290" width="50" height="3" rx="1" ry="1" fill="#3D5A8C"/>
  <rect x="220" y="305" width="72" height="3" rx="1" ry="1" fill="#3D5A8C"/>
  <rect x="220" y="320" width="65" height="3" rx="1" ry="1" fill="#3D5A8C"/>
  <rect x="220" y="335" width="45" height="3" rx="1" ry="1" fill="#3D5A8C"/>
  
  <!-- Arms -->
  <ellipse cx="165" cy="310" rx="12" ry="35" fill="white" stroke="#3D5A8C" stroke-width="4"/>
  <ellipse cx="347" cy="310" rx="12" ry="35" fill="white" stroke="#3D5A8C" stroke-width="4"/>
  
  <!-- Hand dots -->
  <circle cx="165" cy="340" r="8" fill="#3D5A8C"/>
  <circle cx="347" cy="340" r="8" fill="#3D5A8C"/>
</svg>