<svg version="1.1" id="Layer_1" xmlns="http://www.w3.org/2000/svg" xmlns:xlink="http://www.w3.org/1999/xlink" x="0px" y="0px"
	 width="100%" viewBox="0 0 512 512" enable-background="new 0 0 512 512" xml:space="preserve">
<path fill="#31486C" opacity="1.000000" stroke="none" 
	d="
M1.000000,405.000000 
	C1.000000,307.312439 1.000000,209.624878 1.347588,111.272079 
	C1.862743,109.458076 2.081259,108.314117 2.190562,107.159828 
	C7.385137,52.302303 48.532848,11.410851 97.128960,3.469774 
	C101.438751,2.765513 105.710556,1.828768 110.000000,1.000000 
	C207.354233,1.000000 304.708466,1.000000 402.706909,1.369685 
	C404.003784,1.849471 404.652405,2.004352 405.309692,2.063305 
	C459.909363,6.960511 500.906555,44.554424 510.562714,98.582809 
	C511.362457,103.057472 512.187012,107.527710 513.000000,112.000000 
	C513.000000,209.354233 513.000000,306.708466 512.635132,404.688965 
	C511.848541,407.939301 511.365601,410.555176 511.014038,413.188629 
	C504.313904,463.381989 463.105621,504.541138 412.921295,511.213654 
	C410.248932,511.568970 407.639008,512.393738 405.000000,513.000000 
	C305.979095,513.000000 206.958206,513.000000 107.356674,512.619629 
	C105.321640,511.938446 103.880692,511.507996 102.410927,511.355682 
	C52.571976,506.190826 8.937139,463.732758 2.702707,411.418579 
	C2.443356,409.242310 1.581280,407.137878 1.000000,405.000000 
M167.031464,275.851837 
	C153.810318,287.261017 147.305923,315.415771 154.360138,331.181915 
	C157.482819,338.161041 162.591599,343.239014 169.878067,345.824371 
	C171.076950,346.249756 172.891632,346.300964 173.883865,345.673950 
	C176.200058,344.210419 178.189041,342.229095 180.665634,340.160980 
	C179.038116,339.773407 177.667938,339.407867 176.281158,339.123260 
	C167.241943,337.268280 160.346146,330.457123 160.175842,321.317810 
	C160.035507,313.785767 161.037766,306.084381 162.705338,298.723450 
	C163.670715,294.462097 166.953735,290.725800 169.754471,287.114868 
	C171.327530,288.881348 172.900604,290.647827 175.039673,293.049927 
	C175.039673,283.828735 175.039673,275.695679 175.039673,267.562622 
	C174.718063,267.416748 174.396469,267.270874 174.074860,267.125000 
	C171.955154,270.025421 169.835449,272.925873 167.031464,275.851837 
M345.447754,274.613892 
	C343.433472,272.058868 341.419189,269.503815 338.664093,266.009125 
	C338.664093,275.897644 338.664093,284.109467 338.664093,293.701996 
	C340.996399,290.741852 342.493195,288.842133 344.716553,286.865570 
	C345.748749,288.085907 347.030731,289.171753 347.772125,290.548645 
	C352.177063,298.729370 354.214447,307.494598 354.095612,316.800903 
	C353.901489,331.996246 345.816986,339.712677 330.797180,338.024872 
	C330.803375,310.526398 330.718628,283.027283 330.907898,255.530090 
	C330.938385,251.099365 329.585632,249.887070 325.217682,249.901260 
	C279.719666,250.049179 234.220840,250.058197 188.722885,249.907227 
	C184.166824,249.892120 182.717361,251.060745 182.756409,255.774445 
	C182.974564,282.105042 182.855804,308.438416 182.852219,334.770844 
	C182.852005,336.389740 182.852203,338.008606 182.852203,339.645325 
	C192.150391,339.252106 192.150406,339.252106 196.574081,332.072998 
	C200.701126,325.375305 208.392349,322.222717 216.009323,324.106628 
	C223.402649,325.935211 228.976929,332.795288 229.251633,340.403534 
	C229.536545,348.294830 224.541351,355.478271 217.017151,357.997711 
	C209.813278,360.409912 201.566437,357.655945 197.103806,351.306885 
	C196.084915,349.857300 195.184372,348.324524 194.238068,346.843628 
	C190.353455,347.358002 186.777496,347.831512 182.848358,348.351776 
	C182.848358,363.296539 182.877121,377.935364 182.827682,392.573975 
	C182.815628,396.139679 185.173401,395.961884 187.599884,395.961395 
	C233.764984,395.952179 279.930176,395.918457 326.095032,396.024475 
	C329.939331,396.033325 330.913849,394.592499 330.881897,391.016724 
	C330.750977,376.351990 330.848450,361.685181 331.789734,347.128204 
	C347.520538,347.506683 358.528748,339.883636 361.262543,325.249329 
	C364.587769,307.449280 360.104675,291.247742 348.598206,277.141205 
	C347.907715,276.294678 346.765411,275.816650 345.447754,274.613892 
M329.853424,133.978622 
	C326.005219,124.386986 319.197601,118.838577 308.598816,118.823715 
	C274.128021,118.775360 239.657028,118.765884 205.186279,118.832718 
	C192.138153,118.858017 182.969299,128.116684 182.910919,141.274963 
	C182.823730,160.924652 182.823181,180.575195 182.896255,200.224960 
	C182.945084,213.358490 192.486786,222.815781 205.671814,222.832336 
	C239.809586,222.875214 273.947479,222.884613 308.085205,222.827560 
	C321.335327,222.805420 330.737030,213.358704 330.767639,200.148758 
	C330.813141,180.498825 330.795837,160.848618 330.738068,141.198715 
	C330.731750,139.056030 330.283020,136.914673 329.853424,133.978622 
M348.674255,183.843689 
	C348.916534,176.768494 349.680084,169.659927 349.229675,162.629105 
	C348.893219,157.376892 344.275665,153.936966 338.671509,153.152679 
	C338.671509,165.780502 338.671509,178.390945 338.671509,191.235382 
	C343.506226,190.789902 346.168060,188.039276 348.674255,183.843689 
M175.359329,160.665985 
	C175.359329,158.107620 175.359329,155.549255 175.359329,152.790909 
	C167.758835,154.894196 164.251083,159.116974 164.111923,165.771408 
	C164.017929,170.265610 163.992630,174.766479 164.123657,179.258911 
	C164.304413,185.455368 168.410721,189.858444 175.355453,191.002670 
	C175.355453,181.150497 175.355453,171.386337 175.359329,160.665985 
M241.753830,232.603470 
	C242.096100,233.303009 242.428177,234.607773 242.782120,234.613739 
	C252.051941,234.769821 261.324219,234.819000 270.595276,234.761444 
	C271.107605,234.758270 272.136597,233.499939 272.012878,233.135452 
	C271.756683,232.380554 270.879120,231.278061 270.268860,231.285507 
	C260.884460,231.399963 251.501938,231.670090 241.753830,232.603470 
M250.554871,241.003220 
	C247.688736,241.003220 244.822617,241.003220 241.956482,241.003220 
	C241.983871,241.534882 242.011261,242.066559 242.038651,242.598221 
	C251.980316,242.598221 261.921967,242.598221 271.863647,242.598221 
	C271.875092,242.065994 271.886566,241.533768 271.898010,241.001541 
	C265.113556,241.001541 258.329071,241.001541 250.554871,241.003220 
z"/>
<path fill="#FCFDFD" opacity="1.000000" stroke="none" 
	d="
M513.000000,111.531342 
	C512.187012,107.527710 511.362457,103.057472 510.562714,98.582809 
	C500.906555,44.554424 459.909363,6.960511 405.309692,2.063305 
	C404.652405,2.004352 404.003784,1.849471 403.175537,1.369685 
	C439.593964,1.000000 476.187897,1.000000 513.000000,1.000000 
	C513.000000,37.687271 513.000000,74.374977 513.000000,111.531342 
z"/>
<path fill="#FCFDFD" opacity="1.000000" stroke="none" 
	d="
M109.531342,1.000000 
	C105.710556,1.828768 101.438751,2.765513 97.128960,3.469774 
	C48.532848,11.410851 7.385137,52.302303 2.190562,107.159828 
	C2.081259,108.314117 1.862743,109.458076 1.347588,110.803421 
	C1.000000,74.406723 1.000000,37.813442 1.000000,1.000000 
	C37.020596,1.000000 73.041641,1.000000 109.531342,1.000000 
z"/>
<path fill="#FCFDFD" opacity="1.000000" stroke="none" 
	d="
M405.468658,513.000000 
	C407.639008,512.393738 410.248932,511.568970 412.921295,511.213654 
	C463.105621,504.541138 504.313904,463.381989 511.014038,413.188629 
	C511.365601,410.555176 511.848541,407.939301 512.635132,405.157623 
	C513.000000,440.926941 513.000000,476.853882 513.000000,513.000000 
	C477.312744,513.000000 441.625031,513.000000 405.468658,513.000000 
z"/>
<path fill="#FCFDFD" opacity="1.000000" stroke="none" 
	d="
M1.000000,405.468658 
	C1.581280,407.137878 2.443356,409.242310 2.702707,411.418579 
	C8.937139,463.732758 52.571976,506.190826 102.410927,511.355682 
	C103.880692,511.507996 105.321640,511.938446 106.888016,512.619629 
	C71.739037,513.000000 36.478077,513.000000 1.000000,513.000000 
	C1.000000,477.312744 1.000000,441.625031 1.000000,405.468658 
z"/>
<path fill="#FAFAFB" opacity="1.000000" stroke="none" 
	d="
M330.861877,347.019135 
	C330.848450,361.685181 330.750977,376.351990 330.881897,391.016724 
	C330.913849,394.592499 329.939331,396.033325 326.095032,396.024475 
	C279.930176,395.918457 233.764984,395.952179 187.599884,395.961395 
	C185.173401,395.961884 182.815628,396.139679 182.827682,392.573975 
	C182.877121,377.935364 182.848358,363.296539 182.848358,348.351776 
	C186.777496,347.831512 190.353455,347.358002 194.238068,346.843628 
	C195.184372,348.324524 196.084915,349.857300 197.103806,351.306885 
	C201.566437,357.655945 209.813278,360.409912 217.017151,357.997711 
	C224.541351,355.478271 229.536545,348.294830 229.251633,340.403534 
	C228.976929,332.795288 223.402649,325.935211 216.009323,324.106628 
	C208.392349,322.222717 200.701126,325.375305 196.574081,332.072998 
	C192.150406,339.252106 192.150391,339.252106 182.852203,339.645325 
	C182.852203,338.008606 182.852005,336.389740 182.852219,334.770844 
	C182.855804,308.438416 182.974564,282.105042 182.756409,255.774445 
	C182.717361,251.060745 184.166824,249.892120 188.722885,249.907227 
	C234.220840,250.058197 279.719666,250.049179 325.217682,249.901260 
	C329.585632,249.887070 330.938385,251.099365 330.907898,255.530090 
	C330.718628,283.027283 330.803375,310.526398 330.475281,338.447388 
	C329.758789,338.911041 329.364197,338.952179 328.936340,338.556091 
	C328.924377,336.790253 329.058350,335.452209 328.948364,334.134552 
	C328.342010,326.871918 324.694733,321.609924 318.061432,318.689850 
	C311.314117,315.719604 304.984863,316.977203 299.520691,321.765106 
	C294.003937,326.599121 292.192169,332.914001 294.211670,339.852661 
	C298.035004,352.988922 314.241943,357.751038 325.307556,346.677673 
	C327.445038,346.797424 329.153442,346.908295 330.861877,347.019135 
M208.843201,374.210754 
	C208.843201,371.425171 208.843201,368.639557 208.843201,365.775238 
	C206.691971,365.200409 204.963104,364.738434 202.846100,363.930786 
	C202.328354,364.636658 201.810608,365.342529 201.167068,366.954803 
	C201.205673,370.621094 201.244278,374.287384 201.094803,378.723846 
	C201.052200,382.139374 203.203278,382.808197 206.045349,382.806854 
	C240.862915,382.790131 275.680634,382.833038 310.497528,382.681122 
	C311.985260,382.674622 313.465393,380.926086 315.118591,379.066772 
	C315.118591,372.613251 315.118591,366.159729 315.118591,359.591980 
	C312.325562,359.791840 310.099670,359.951111 307.762421,360.118347 
	C307.762421,364.337708 307.953735,368.177704 307.649536,371.978027 
	C307.554352,373.167419 306.123535,374.249878 304.465332,375.216644 
	C272.634247,375.183197 240.803162,375.149719 208.843201,374.210754 
M257.630402,275.445496 
	C258.128387,275.380615 258.626404,275.315735 259.987488,275.538330 
	C263.613617,275.440613 267.239746,275.342926 271.501556,275.452698 
	C273.050232,275.383118 274.598938,275.313568 277.025696,275.529877 
	C282.315338,275.436829 287.604950,275.343750 293.630096,275.449738 
	C294.129639,275.385468 294.629150,275.321198 295.995087,275.545563 
	C299.788635,275.545563 303.582153,275.545563 307.902039,275.545563 
	C307.902039,287.430084 307.902039,298.660767 307.902039,309.908264 
	C310.524994,310.024750 312.612885,310.117462 315.151642,310.230164 
	C315.151642,297.240082 315.154114,284.443481 315.149933,271.646851 
	C315.148834,268.336365 312.909546,268.058411 310.365173,268.059204 
	C275.536804,268.069885 240.708374,268.083710 205.880112,268.020935 
	C202.474564,268.014801 201.025833,269.346100 201.088745,272.757812 
	C201.196289,278.588226 201.109314,284.422241 201.108139,290.254730 
	C201.106232,299.665009 201.107620,309.075287 201.107620,318.839874 
	C204.059647,317.940247 206.372223,317.235474 209.045700,316.420715 
	C209.045700,302.815613 209.045700,289.400787 209.045700,275.250916 
	C221.299652,275.250916 233.097198,275.250916 245.629150,275.448700 
	C246.127457,275.382599 246.625748,275.316498 247.973160,275.536407 
	C250.947739,275.439972 253.922302,275.343567 257.630402,275.445496 
M246.504181,319.544830 
	C242.173294,319.531921 237.824951,319.292603 233.520660,319.624603 
	C231.939972,319.746521 230.463531,321.219971 228.939545,322.076935 
	C230.416565,322.986389 231.885406,324.671082 233.371841,324.686737 
	C250.360413,324.865723 267.352600,324.866974 284.340698,324.659607 
	C285.965271,324.639771 287.568848,322.895172 289.182190,321.951263 
	C287.615540,321.145142 286.059265,319.664276 284.480560,319.639954 
	C272.157104,319.450012 259.829285,319.540009 246.504181,319.544830 
M288.216736,355.101746 
	C270.386200,355.107025 252.554840,355.038055 234.726624,355.243439 
	C233.111374,355.262024 231.516464,357.046295 229.912109,358.010620 
	C231.500534,358.755524 233.083832,360.135406 234.678131,360.148254 
	C253.007339,360.295990 271.338226,360.236359 289.668640,360.231354 
	C290.335175,360.231171 291.154816,360.472626 291.637421,360.173248 
	C292.757660,359.478241 293.715149,358.520874 294.738617,357.669891 
	C293.704071,356.818237 292.756104,355.808075 291.600952,355.177216 
	C290.957123,354.825623 289.968658,355.105103 288.216736,355.101746 
M241.502533,294.624725 
	C251.294998,294.617828 261.089691,294.710724 270.877411,294.492462 
	C272.286011,294.461060 273.661194,292.931183 275.051849,292.094757 
	C273.777008,291.150726 272.512299,289.401855 271.225739,289.385590 
	C256.290558,289.196899 241.351364,289.211365 226.415634,289.381897 
	C225.191284,289.395874 223.984467,290.944489 222.769501,291.780029 
	C224.033798,292.725555 225.245453,294.389343 226.571945,294.486542 
	C231.194565,294.825409 235.856949,294.622040 241.502533,294.624725 
M237.337753,341.704529 
	C237.943924,341.953247 238.549438,342.417328 239.156342,342.419159 
	C253.976288,342.464386 268.797058,342.519409 283.615143,342.349701 
	C284.759521,342.336578 285.885162,340.681152 287.019501,339.789062 
	C285.827972,338.933624 284.644989,337.347961 283.443695,337.333923 
	C268.958008,337.165100 254.469620,337.218842 239.981979,337.240784 
	C237.456894,337.244629 236.245346,338.412231 237.337753,341.704529 
M255.836731,301.898438 
	C246.017181,301.863464 236.196213,301.741852 226.379929,301.904205 
	C225.165878,301.924286 223.976822,303.455902 222.776199,304.287079 
	C223.781784,305.139282 224.772720,306.711029 225.795227,306.731873 
	C235.446030,306.928314 245.105362,307.000854 254.755020,306.786072 
	C257.783356,306.718628 258.986145,304.940399 255.836731,301.898438 
M265.289978,302.153229 
	C262.615326,305.885193 264.810211,306.828674 268.110352,306.858856 
	C275.571106,306.927185 283.038788,307.020721 290.489410,306.733856 
	C291.961761,306.677155 293.370148,304.959625 294.808044,304.008026 
	C293.375000,303.268250 291.954956,301.920441 290.506744,301.889465 
	C282.387817,301.716064 274.262115,301.860229 265.289978,302.153229 
z"/>
<path fill="#FDFDFD" opacity="1.000000" stroke="none" 
	d="
M329.946442,134.375656 
	C330.283020,136.914673 330.731750,139.056030 330.738068,141.198715 
	C330.795837,160.848618 330.813141,180.498825 330.767639,200.148758 
	C330.737030,213.358704 321.335327,222.805420 308.085205,222.827560 
	C273.947479,222.884613 239.809586,222.875214 205.671814,222.832336 
	C192.486786,222.815781 182.945084,213.358490 182.896255,200.224960 
	C182.823181,180.575195 182.823730,160.924652 182.910919,141.274963 
	C182.969299,128.116684 192.138153,118.858017 205.186279,118.832718 
	C239.657028,118.765884 274.128021,118.775360 308.598816,118.823715 
	C319.197601,118.838577 326.005219,124.386986 329.946442,134.375656 
M221.520477,183.935440 
	C229.746857,182.943512 234.854340,177.102859 233.703842,170.003189 
	C232.564316,162.971130 225.920853,158.370911 219.040894,159.849915 
	C213.751846,160.986923 209.833725,165.800034 209.682571,171.345840 
	C209.503952,177.900574 213.235352,182.154709 221.520477,183.935440 
M297.483276,160.885162 
	C289.769989,158.089279 283.280731,160.687653 280.707672,167.602325 
	C278.446838,173.677917 281.349274,180.424530 287.314240,182.959137 
	C293.402283,185.546021 300.353516,182.683975 303.116302,176.452896 
	C305.540314,170.985901 303.891815,165.927872 297.483276,160.885162 
z"/>
<path fill="#809AB4" opacity="1.000000" stroke="none" 
	d="
M328.969604,338.993286 
	C329.364197,338.952179 329.758789,338.911041 330.448181,338.912506 
	C345.816986,339.712677 353.901489,331.996246 354.095612,316.800903 
	C354.214447,307.494598 352.177063,298.729370 347.772125,290.548645 
	C347.030731,289.171753 345.748749,288.085907 344.419312,286.536591 
	C344.692505,282.527466 345.262909,278.847321 345.833344,275.167175 
	C346.765411,275.816650 347.907715,276.294678 348.598206,277.141205 
	C360.104675,291.247742 364.587769,307.449280 361.262543,325.249329 
	C358.528748,339.883636 347.520538,347.506683 331.325806,347.073669 
	C329.153442,346.908295 327.445038,346.797424 325.434204,346.369965 
	C326.411102,343.700012 327.690369,341.346649 328.969604,338.993286 
z"/>
<path fill="#809AB4" opacity="1.000000" stroke="none" 
	d="
M169.193726,286.753204 
	C166.953735,290.725800 163.670715,294.462097 162.705338,298.723450 
	C161.037766,306.084381 160.035507,313.785767 160.175842,321.317810 
	C160.346146,330.457123 167.241943,337.268280 176.281158,339.123260 
	C177.667938,339.407867 179.038116,339.773407 180.665634,340.160980 
	C178.189041,342.229095 176.200058,344.210419 173.883865,345.673950 
	C172.891632,346.300964 171.076950,346.249756 169.878067,345.824371 
	C162.591599,343.239014 157.482819,338.161041 154.360138,331.181915 
	C147.305923,315.415771 153.810318,287.261017 167.520935,276.265930 
	C168.404831,280.037720 168.799271,283.395477 169.193726,286.753204 
z"/>
<path fill="#EEF1F3" opacity="1.000000" stroke="none" 
	d="
M348.482849,184.182343 
	C346.168060,188.039276 343.506226,190.789902 338.671509,191.235382 
	C338.671509,178.390945 338.671509,165.780502 338.671509,153.152679 
	C344.275665,153.936966 348.893219,157.376892 349.229675,162.629105 
	C349.680084,169.659927 348.916534,176.768494 348.482849,184.182343 
z"/>
<path fill="#FAFAFB" opacity="1.000000" stroke="none" 
	d="
M175.357391,161.144089 
	C175.355453,171.386337 175.355453,181.150497 175.355453,191.002670 
	C168.410721,189.858444 164.304413,185.455368 164.123657,179.258911 
	C163.992630,174.766479 164.017929,170.265610 164.111923,165.771408 
	C164.251083,159.116974 167.758835,154.894196 175.359329,152.790909 
	C175.359329,155.549255 175.359329,158.107620 175.357391,161.144089 
z"/>
<path fill="#FAFAFB" opacity="1.000000" stroke="none" 
	d="
M169.474091,286.934021 
	C168.799271,283.395477 168.404831,280.037720 167.863068,276.253174 
	C169.835449,272.925873 171.955154,270.025421 174.074860,267.125000 
	C174.396469,267.270874 174.718063,267.416748 175.039673,267.562622 
	C175.039673,275.695679 175.039673,283.828735 175.039673,293.049927 
	C172.900604,290.647827 171.327530,288.881348 169.474091,286.934021 
z"/>
<path fill="#E8ECF0" opacity="1.000000" stroke="none" 
	d="
M345.640564,274.890533 
	C345.262909,278.847321 344.692505,282.527466 344.056030,286.575012 
	C342.493195,288.842133 340.996399,290.741852 338.664093,293.701996 
	C338.664093,284.109467 338.664093,275.897644 338.664093,266.009125 
	C341.419189,269.503815 343.433472,272.058868 345.640564,274.890533 
z"/>
<path fill="#E8ECF0" opacity="1.000000" stroke="none" 
	d="
M241.936401,232.253754 
	C251.501938,231.670090 260.884460,231.399963 270.268860,231.285507 
	C270.879120,231.278061 271.756683,232.380554 272.012878,233.135452 
	C272.136597,233.499939 271.107605,234.758270 270.595276,234.761444 
	C261.324219,234.819000 252.051941,234.769821 242.782120,234.613739 
	C242.428177,234.607773 242.096100,233.303009 241.936401,232.253754 
z"/>
<path fill="#E8ECF0" opacity="1.000000" stroke="none" 
	d="
M251.049744,241.002380 
	C258.329071,241.001541 265.113556,241.001541 271.898010,241.001541 
	C271.886566,241.533768 271.875092,242.065994 271.863647,242.598221 
	C261.921967,242.598221 251.980316,242.598221 242.038651,242.598221 
	C242.011261,242.066559 241.983871,241.534882 241.956482,241.003220 
	C244.822617,241.003220 247.688736,241.003220 251.049744,241.002380 
z"/>
<path fill="#405575" opacity="1.000000" stroke="none" 
	d="
M292.894592,275.250671 
	C287.604950,275.343750 282.315338,275.436829 276.303406,275.144226 
	C274.009399,274.920807 272.437622,275.083008 270.865875,275.245239 
	C267.239746,275.342926 263.613617,275.440613 259.355530,275.213623 
	C258.114685,275.008331 257.505798,275.127747 256.896881,275.247162 
	C253.922302,275.343567 250.947739,275.439972 247.347809,275.212524 
	C246.113220,275.009399 245.503983,275.130157 244.894745,275.250916 
	C233.097198,275.250916 221.299652,275.250916 209.045700,275.250916 
	C209.045700,289.400787 209.045700,302.815613 209.045700,316.420715 
	C206.372223,317.235474 204.059647,317.940247 201.107620,318.839874 
	C201.107620,309.075287 201.106232,299.665009 201.108139,290.254730 
	C201.109314,284.422241 201.196289,278.588226 201.088745,272.757812 
	C201.025833,269.346100 202.474564,268.014801 205.880112,268.020935 
	C240.708374,268.083710 275.536804,268.069885 310.365173,268.059204 
	C312.909546,268.058411 315.148834,268.336365 315.149933,271.646851 
	C315.154114,284.443481 315.151642,297.240082 315.151642,310.230164 
	C312.612885,310.117462 310.524994,310.024750 307.902039,309.908264 
	C307.902039,298.660767 307.902039,287.430084 307.902039,275.545563 
	C303.582153,275.545563 299.788635,275.545563 295.361145,275.219055 
	C294.116333,275.011932 293.505463,275.131317 292.894592,275.250671 
z"/>
<path fill="#344B6E" opacity="1.000000" stroke="none" 
	d="
M328.936340,338.556091 
	C327.690369,341.346649 326.411102,343.700012 325.005188,346.361053 
	C314.241943,357.751038 298.035004,352.988922 294.211670,339.852661 
	C292.192169,332.914001 294.003937,326.599121 299.520691,321.765106 
	C304.984863,316.977203 311.314117,315.719604 318.061432,318.689850 
	C324.694733,321.609924 328.342010,326.871918 328.948364,334.134552 
	C329.058350,335.452209 328.924377,336.790253 328.936340,338.556091 
z"/>
<path fill="#3B5072" opacity="1.000000" stroke="none" 
	d="
M305.304077,375.381287 
	C306.123535,374.249878 307.554352,373.167419 307.649536,371.978027 
	C307.953735,368.177704 307.762421,364.337708 307.762421,360.118347 
	C310.099670,359.951111 312.325562,359.791840 315.118591,359.591980 
	C315.118591,366.159729 315.118591,372.613251 314.637207,379.656128 
	C311.867828,380.554718 309.580322,381.129211 307.291809,381.133362 
	C274.536133,381.192749 241.779877,381.247772 209.025497,381.036896 
	C206.438126,381.020233 203.863464,379.027832 201.282898,377.953674 
	C201.244278,374.287384 201.205673,370.621094 201.522644,366.342590 
	C202.330215,365.245728 202.782227,364.761078 203.234238,364.276459 
	C204.963104,364.738434 206.691971,365.200409 208.843201,365.775238 
	C208.843201,368.639557 208.843201,371.425171 209.103882,374.996277 
	C210.894821,376.192932 212.424210,376.958862 213.955475,376.962616 
	C242.566574,377.033173 271.177979,377.043213 299.788910,376.942200 
	C301.629120,376.935730 303.465759,375.924896 305.304077,375.381287 
z"/>
<path fill="#405575" opacity="1.000000" stroke="none" 
	d="
M247.003510,319.544189 
	C259.829285,319.540009 272.157104,319.450012 284.480560,319.639954 
	C286.059265,319.664276 287.615540,321.145142 289.182190,321.951263 
	C287.568848,322.895172 285.965271,324.639771 284.340698,324.659607 
	C267.352600,324.866974 250.360413,324.865723 233.371841,324.686737 
	C231.885406,324.671082 230.416565,322.986389 228.939545,322.076935 
	C230.463531,321.219971 231.939972,319.746521 233.520660,319.624603 
	C237.824951,319.292603 242.173294,319.531921 247.003510,319.544189 
z"/>
<path fill="#3B5072" opacity="1.000000" stroke="none" 
	d="
M288.676117,355.100952 
	C289.968658,355.105103 290.957123,354.825623 291.600952,355.177216 
	C292.756104,355.808075 293.704071,356.818237 294.738617,357.669891 
	C293.715149,358.520874 292.757660,359.478241 291.637421,360.173248 
	C291.154816,360.472626 290.335175,360.231171 289.668640,360.231354 
	C271.338226,360.236359 253.007339,360.295990 234.678131,360.148254 
	C233.083832,360.135406 231.500534,358.755524 229.912109,358.010620 
	C231.516464,357.046295 233.111374,355.262024 234.726624,355.243439 
	C252.554840,355.038055 270.386200,355.107025 288.676117,355.100952 
z"/>
<path fill="#50637F" opacity="1.000000" stroke="none" 
	d="
M241.003372,294.624756 
	C235.856949,294.622040 231.194565,294.825409 226.571945,294.486542 
	C225.245453,294.389343 224.033798,292.725555 222.769501,291.780029 
	C223.984467,290.944489 225.191284,289.395874 226.415634,289.381897 
	C241.351364,289.211365 256.290558,289.196899 271.225739,289.385590 
	C272.512299,289.401855 273.777008,291.150726 275.051849,292.094757 
	C273.661194,292.931183 272.286011,294.461060 270.877411,294.492462 
	C261.089691,294.710724 251.294998,294.617828 241.003372,294.624756 
z"/>
<path fill="#3B5072" opacity="1.000000" stroke="none" 
	d="
M237.145325,341.375946 
	C236.245346,338.412231 237.456894,337.244629 239.981979,337.240784 
	C254.469620,337.218842 268.958008,337.165100 283.443695,337.333923 
	C284.644989,337.347961 285.827972,338.933624 287.019501,339.789062 
	C285.885162,340.681152 284.759521,342.336578 283.615143,342.349701 
	C268.797058,342.519409 253.976288,342.464386 239.156342,342.419159 
	C238.549438,342.417328 237.943924,341.953247 237.145325,341.375946 
z"/>
<path fill="#576883" opacity="1.000000" stroke="none" 
	d="
M201.188858,378.338745 
	C203.863464,379.027832 206.438126,381.020233 209.025497,381.036896 
	C241.779877,381.247772 274.536133,381.192749 307.291809,381.133362 
	C309.580322,381.129211 311.867828,380.554718 314.552429,380.117279 
	C313.465393,380.926086 311.985260,382.674622 310.497528,382.681122 
	C275.680634,382.833038 240.862915,382.790131 206.045349,382.806854 
	C203.203278,382.808197 201.052200,382.139374 201.188858,378.338745 
z"/>
<path fill="#2B4062" opacity="1.000000" stroke="none" 
	d="
M304.884705,375.298950 
	C303.465759,375.924896 301.629120,376.935730 299.788910,376.942200 
	C271.177979,377.043213 242.566574,377.033173 213.955475,376.962616 
	C212.424210,376.958862 210.894821,376.192932 209.168320,375.449036 
	C240.803162,375.149719 272.634247,375.183197 304.884705,375.298950 
z"/>
<path fill="#3B5072" opacity="1.000000" stroke="none" 
	d="
M256.250916,302.035950 
	C258.986145,304.940399 257.783356,306.718628 254.755020,306.786072 
	C245.105362,307.000854 235.446030,306.928314 225.795227,306.731873 
	C224.772720,306.711029 223.781784,305.139282 222.776199,304.287079 
	C223.976822,303.455902 225.165878,301.924286 226.379929,301.904205 
	C236.196213,301.741852 246.017181,301.863464 256.250916,302.035950 
z"/>
<path fill="#3B5072" opacity="1.000000" stroke="none" 
	d="
M265.714355,302.024597 
	C274.262115,301.860229 282.387817,301.716064 290.506744,301.889465 
	C291.954956,301.920441 293.375000,303.268250 294.808044,304.008026 
	C293.370148,304.959625 291.961761,306.677155 290.489410,306.733856 
	C283.038788,307.020721 275.571106,306.927185 268.110352,306.858856 
	C264.810211,306.828674 262.615326,305.885193 265.714355,302.024597 
z"/>
<path fill="#2B4062" opacity="1.000000" stroke="none" 
	d="
M271.183716,275.348969 
	C272.437622,275.083008 274.009399,274.920807 275.864380,275.001312 
	C274.598938,275.313568 273.050232,275.383118 271.183716,275.348969 
z"/>
<path fill="#576883" opacity="1.000000" stroke="none" 
	d="
M203.040161,364.103638 
	C202.782227,364.761078 202.330215,365.245728 201.585541,365.889374 
	C201.810608,365.342529 202.328354,364.636658 203.040161,364.103638 
z"/>
<path fill="#2B4062" opacity="1.000000" stroke="none" 
	d="
M293.262329,275.350220 
	C293.505463,275.131317 294.116333,275.011932 294.927948,275.074738 
	C294.629150,275.321198 294.129639,275.385468 293.262329,275.350220 
z"/>
<path fill="#2B4062" opacity="1.000000" stroke="none" 
	d="
M257.263641,275.346313 
	C257.505798,275.127747 258.114685,275.008331 258.924011,275.069885 
	C258.626404,275.315735 258.128387,275.380615 257.263641,275.346313 
z"/>
<path fill="#2B4062" opacity="1.000000" stroke="none" 
	d="
M245.261948,275.349792 
	C245.503983,275.130157 246.113220,275.009399 246.923248,275.069519 
	C246.625748,275.316498 246.127457,275.382599 245.261948,275.349792 
z"/>
<path fill="#364C6E" opacity="1.000000" stroke="none" 
	d="
M221.117554,183.929413 
	C213.235352,182.154709 209.503952,177.900574 209.682571,171.345840 
	C209.833725,165.800034 213.751846,160.986923 219.040894,159.849915 
	C225.920853,158.370911 232.564316,162.971130 233.703842,170.003189 
	C234.854340,177.102859 229.746857,182.943512 221.117554,183.929413 
z"/>
<path fill="#364C6E" opacity="1.000000" stroke="none" 
	d="
M297.816925,161.050873 
	C303.891815,165.927872 305.540314,170.985901 303.116302,176.452896 
	C300.353516,182.683975 293.402283,185.546021 287.314240,182.959137 
	C281.349274,180.424530 278.446838,173.677917 280.707672,167.602325 
	C283.280731,160.687653 289.769989,158.089279 297.816925,161.050873 
z"/>
</svg>